<svg id="Laag_2" data-name="Laag 2" xmlns="http://www.w3.org/2000/svg" width="351.3" height="311.27" viewBox="0 0 351.3 311.27"><defs><style>.cls-1{fill:#00b097;}.cls-2{opacity:0.05;}</style></defs><title>Artboard 1 kopie</title><path class="cls-1" d="M332.72,141.75,351.3,145s-1.46-13.08-12-29.52a77.78,77.78,0,0,0-13.69-16.38l19.66-1.4s-4.56-12.35-18.7-25.79a77.86,77.86,0,0,0-17-12.52l16.68-8.46s-9-9.61-27.25-16.51a81.35,81.35,0,0,0-17.28-4.55l-.5-.34,9.58-9.24s-11.42-6.55-30.89-7.79a78,78,0,0,0-21,1.29l-.44-.06L243.76.06S230.64-1,212.47,6A77.52,77.52,0,0,0,193.6,16.35l-.29.07L195.22,5.2s-13.08,1.51-29.49,12.05a77.93,77.93,0,0,0-16.17,13.52l.2-14.53s-12.69,3.51-27.27,16.47A78.9,78.9,0,0,0,109,48c-1.52-8.42-5.78-16.08-16-17.61-24.12-3.6-65.88,3.24-83.52,47.88s-6.48,66.24.72,69.12,86,4.32,100.09-3.6c2.5-1.41,3.74-3.78,4.17-6.82,3.14-.24,6.66-.59,10.23-1.1a253,253,0,0,1,27.48-1.56,9.72,9.72,0,0,1-.07,2.73c-1.16,7.22-10.89,21.16-17.16,23.88-5.89,2.56-16.08-1.8-20.53,3.66-9.08,11.14,17.58,10.17,22.7,10.4s10.67.56,15.39-1.63c9.28-4.31,17.3-13,24.55-20,5.77-5.56,11-11.63,13-18.18,8.22.51,16.76,1.25,25.38,2.28a130.74,130.74,0,0,1,25.1,5.61h0c2.59,12.63,6.8,25.31,6.69,37.76-6.34-2.69-15.74-7.85-23-4.72-3.25,1.4-5.35,5.26-3.83,8.56,1.81,3.92,7.75,4.53,11.53,5.52,7.86,2.05,16,5.16,24.16,5.83,8.49.7,9.29-2.21,11.18-10.3,2.6-11.15,2.13-22.07,2.78-33.39-.09,1.63-.16,3.24-.22,4.85,13.68,9.19,22.86,20.23,24.44,30.51,3.24,21.06-5.94,59.94-45.9,83.16s-78.3,8.1-90.18-9.72,4.58-31.59,16.2-29.16c16.38,3.42,27.57-6.43,16.74-18.36-10.62-11.7-37.8-12.42-55.62,6.48s-23.22,84.24,53.46,90.72S310.41,252,324.45,212a130.71,130.71,0,0,0,5.88-26.08l18.25,7.59s1.46-13.09-5.15-31.44A76,76,0,0,0,332.72,141.75Zm-193-19.54c5.33,2.94,11.77,6.12,12.45,12.08C151.45,128.33,145,125.15,139.68,122.21Zm-2.29-1.31.13.08Zm1.12.66.24.14Zm47.8-3.74c.31.4.59.8.86,1.2C186.9,118.62,186.62,118.22,186.31,117.82Zm1.13,1.61c.17.26.34.52.49.78C187.78,120,187.61,119.69,187.44,119.43Zm.78,1.28c.13.23.26.45.38.68C188.48,121.16,188.35,120.94,188.22,120.71Zm.65,1.22.29.62Zm.54,1.2c.08.19.16.38.23.57C189.57,123.51,189.49,123.32,189.41,123.13Zm.45,1.19c.06.17.11.34.17.52C190,124.66,189.92,124.49,189.86,124.32Zm.35,1.17.12.46Zm.27,1.16.06.37Zm.18,1.14a1.5,1.5,0,0,1,0,.2A1.5,1.5,0,0,0,190.66,127.79Zm49.19,12,.06.37Zm-1.14-8.5q.12,1.5.3,3Q238.83,132.81,238.71,131.31Zm.55,4.84c.06.37.1.74.16,1.11C239.36,136.89,239.32,136.52,239.26,136.15Z"/></svg>