<?xml version="1.0" encoding="utf-8"?>
<!-- Generator: Adobe Illustrator 22.1.0, SVG Export Plug-In . SVG Version: 6.00 Build 0)  -->
<svg version="1.1" id="Laag_1" xmlns="http://www.w3.org/2000/svg" xmlns:xlink="http://www.w3.org/1999/xlink" x="0px" y="0px"
	 viewBox="0 0 276.5 490.7" style="enable-background:new 0 0 276.5 490.7;" xml:space="preserve">
<style type="text/css">
	.st0{fill:#FFFFFF;}
</style>
<path class="st0" d="M223.1,9.2L9.2,223.1c-6,6-9.2,13.7-9.2,22.1c0,8.2,3.4,16.3,9.2,22.1L223,481c5.9,6.1,13.7,9.6,22.1,9.7
	c8.4,0.1,16.3-3.2,22.3-9.2c5.9-5.9,9.2-13.8,9.2-22.1c0,0,0-0.1,0-0.1c0-8.3-3.3-16.1-9.2-22L75.1,245.6L267.3,53.4
	c5.9-5.9,9.2-13.8,9.2-22.1c0,0,0-0.1,0-0.1c0-8.3-3.3-16.2-9.3-22c-5.9-5.8-13.7-9-22-9.1C236.8,0,228.9,3.2,223.1,9.2z"/>
</svg>
