<?xml version="1.0" encoding="utf-8"?>
<!-- Generator: Adobe Illustrator 22.1.0, SVG Export Plug-In . SVG Version: 6.00 Build 0)  -->
<svg version="1.1" id="Laag_1" xmlns="http://www.w3.org/2000/svg" xmlns:xlink="http://www.w3.org/1999/xlink" x="0px" y="0px"
	 viewBox="0 0 490.7 276.5" style="enable-background:new 0 0 490.7 276.5;" xml:space="preserve">
<path d="M481.5,223.1L267.7,9.2c-6-6-13.7-9.2-22.1-9.2c-8.2,0-16.3,3.4-22.1,9.2L9.7,223c-6.1,5.9-9.6,13.7-9.7,22.1
	c-0.1,8.4,3.2,16.3,9.2,22.3c5.9,5.9,13.8,9.2,22.1,9.2c0,0,0.1,0,0.1,0c8.3,0,16.1-3.3,22-9.2L245.2,75.1l192.2,192.2
	c5.9,5.9,13.8,9.2,22.1,9.2c0,0,0.1,0,0.1,0c8.3,0,16.2-3.3,22-9.3c5.8-5.9,9-13.7,9.1-22C490.7,236.8,487.5,228.9,481.5,223.1z"/>
</svg>
