<?xml version="1.0" encoding="utf-8"?>
<!-- Generator: Adobe Illustrator 22.1.0, SVG Export Plug-In . SVG Version: 6.00 Build 0)  -->
<svg version="1.1" id="Laag_1" xmlns="http://www.w3.org/2000/svg" xmlns:xlink="http://www.w3.org/1999/xlink" x="0px" y="0px"
	 viewBox="0 0 276.5 490.7" style="enable-background:new 0 0 276.5 490.7;" xml:space="preserve">
<style type="text/css">
	.st0{fill:#FFFFFF;}
</style>
<path class="st0" d="M53.4,481.5l213.9-213.9c6-6,9.2-13.7,9.2-22.1c0-8.2-3.4-16.3-9.2-22.1L53.5,9.7C47.7,3.5,39.8,0.1,31.4,0
	C23-0.1,15.1,3.2,9.2,9.2C3.2,15.1,0,23,0,31.3c0,0,0,0.1,0,0.1c0,8.3,3.3,16.1,9.2,22l192.1,191.8L9.2,437.3
	C3.3,443.3,0,451.1,0,459.5c0,0,0,0.1,0,0.1c0,8.3,3.3,16.2,9.3,22c5.9,5.8,13.7,9,22,9.1C39.7,490.7,47.6,487.5,53.4,481.5z"/>
</svg>
