<?xml version="1.0" encoding="utf-8"?>
<!-- Generator: Adobe Illustrator 22.0.1, SVG Export Plug-In . SVG Version: 6.00 Build 0)  -->
<svg version="1.1" id="Capa_1" xmlns="http://www.w3.org/2000/svg" xmlns:xlink="http://www.w3.org/1999/xlink" x="0px" y="0px"
	 viewBox="0 0 512 512" style="enable-background:new 0 0 512 512;" xml:space="preserve">
<style type="text/css">
	.st0{fill:#FFFFFF;}
</style>
<g>
	<path class="st0" d="M627.8,358.9c1.6,1.3,3.5,1.9,5.4,1.9c2.5,0,5.1-1.1,6.8-3.3c3-3.7,2.4-9.2-1.4-12.2
		c-6.9-5.5-13.7-11.5-20-17.9l-64.1-64.1l66.1-66.1c63.6-63.6,156.1-85.3,241.4-56.7c4.5,1.5,9.5-0.9,11-5.5c1.5-4.5-0.9-9.5-5.5-11
		c-91.6-30.7-190.9-7.4-259.2,60.8L530,263.3l76.4,76.4C613.2,346.5,620.4,352.9,627.8,358.9z"/>
	<path class="st0" d="M965.6,184.9c-11.7-11.7-24.5-22.2-38.1-31.4c-4-2.7-9.4-1.6-12,2.4c-2.7,4-1.6,9.4,2.4,12
		c12.7,8.5,24.6,18.3,35.5,29.2l64.1,64.1l-66.1,66.1c-64,64-160.5,85.7-245.8,55.1c-4.5-1.6-9.5,0.7-11.1,5.2
		c-1.6,4.5,0.7,9.5,5.2,11.1c27.6,9.9,56.3,14.7,84.8,14.7c66.1,0,131.1-25.8,179.2-73.9l78.4-78.4L965.6,184.9z"/>
	<path class="st0" d="M794.8,362.2c-18.7,0-36.9-5.2-52.6-15c-4-2.5-9.4-1.3-11.9,2.8c-2.5,4.1-1.3,9.4,2.8,11.9
		c18.5,11.5,39.9,17.6,61.8,17.6c64.5,0,117.1-52.5,117.1-117.1c0-23.3-6.8-45.8-19.7-65c-2.7-4-8.1-5-12-2.4c-4,2.7-5,8.1-2.4,12
		c11,16.4,16.8,35.6,16.8,55.4C894.5,317.5,849.8,362.2,794.8,362.2z"/>
	<path class="st0" d="M794.8,162.8c17.9,0,35.5,4.8,50.8,13.9c4.1,2.4,9.4,1.1,11.9-3c2.4-4.1,1.1-9.4-3-11.9
		c-18-10.7-38.6-16.3-59.6-16.3c-64.5,0-117.1,52.5-117.1,117.1c0,18.1,4,35.4,11.9,51.5c1.5,3.1,4.6,4.9,7.8,4.9
		c1.3,0,2.6-0.3,3.8-0.9c4.3-2.1,6.1-7.3,4-11.6c-6.7-13.7-10.1-28.5-10.1-43.9C695.1,207.5,739.8,162.8,794.8,162.8z"/>
	<path class="st0" d="M1003.6,48.3c-3.4-3.4-8.9-3.4-12.3,0L588.2,451.5c-3.4,3.4-3.4,8.9,0,12.3c1.7,1.7,3.9,2.5,6.1,2.5
		s4.4-0.8,6.1-2.5l403.2-403.2C1007,57.1,1007,51.7,1003.6,48.3z"/>
</g>
<path class="st0" d="M433.5,72.1c-3.4-3.4-8.9-3.4-12.3,0L77.5,415.9c-3.4,3.4-3.4,8.9,0,12.3c1.7,1.7,3.9,2.5,6.1,2.5
	s4.4-0.8,6.1-2.5L433.5,84.4C436.9,81,436.9,75.5,433.5,72.1z"/>
<g>
	<path class="st0" d="M441.4,178.4c-102.8-106.2-270.1-106.2-372.9,0l-68.7,70.9L70.1,322c51.4,53.1,118.9,79.6,186.5,79.6
		S391.7,375,443.1,322l68.7-70.9L441.4,178.4z M430.8,309.3c-96.1,99.2-252.4,99.2-348.5,0l-58.2-60L80.7,191
		c96.1-99.2,252.4-99.2,348.5,0l58.2,60L430.8,309.3z"/>
	<path class="st0" d="M246.9,178.5c-33.4,0-60.5,28-60.5,62.5c0,4.9,3.9,8.9,8.6,8.9c4.8,0,8.6-4,8.6-8.9
		c0-24.6,19.4-44.7,43.2-44.7c4.8,0,8.6-4,8.6-8.9C255.5,182.5,251.6,178.5,246.9,178.5z"/>
	<path class="st0" d="M255.5,133.8c-62,0-112.4,52.1-112.4,116.1S193.5,366,255.5,366s112.4-52.1,112.4-116.1
		S317.5,133.8,255.5,133.8z M255.5,348.1c-52.5,0-95.1-44.1-95.1-98.2s42.7-98.2,95.1-98.2s95.1,44.1,95.1,98.2
		S308,348.1,255.5,348.1z"/>
</g>
</svg>
