<?xml version="1.0" encoding="utf-8"?>
<!-- Generator: Adobe Illustrator 22.0.1, SVG Export Plug-In . SVG Version: 6.00 Build 0)  -->
<svg version="1.1" id="Capa_1" xmlns="http://www.w3.org/2000/svg" xmlns:xlink="http://www.w3.org/1999/xlink" x="0px" y="0px"
	 viewBox="0 0 512 512" style="enable-background:new 0 0 512 512;" xml:space="preserve">
<style type="text/css">
	.st0{fill:#FFFFFF;}
</style>
<g>
	<path class="st0" d="M441.6,177.4c-102.8-106.2-270.1-106.2-372.9,0L0,248.3l70.4,72.7c51.4,53.1,118.9,79.6,186.5,79.6
		s135.1-26.5,186.5-79.6L512,250L441.6,177.4z M431.1,308.3c-96.1,99.2-252.4,99.2-348.5,0l-58.2-60L80.9,190
		c96.1-99.2,252.4-99.2,348.5,0l58.2,60L431.1,308.3z"/>
	<path class="st0" d="M247.1,177.4c-33.4,0-60.5,28-60.5,62.5c0,4.9,3.9,8.9,8.6,8.9c4.8,0,8.6-4,8.6-8.9
		c0-24.6,19.4-44.7,43.2-44.7c4.8,0,8.6-4,8.6-8.9C255.8,181.4,251.9,177.4,247.1,177.4z"/>
	<path class="st0" d="M255.8,132.8c-62,0-112.4,52.1-112.4,116.1S193.8,365,255.8,365s112.4-52.1,112.4-116.1
		S317.8,132.8,255.8,132.8z M255.8,347.1c-52.5,0-95.1-44.1-95.1-98.2s42.7-98.2,95.1-98.2s95.1,44.1,95.1,98.2
		S308.2,347.1,255.8,347.1z"/>
</g>
</svg>
