<svg xmlns="http://www.w3.org/2000/svg" width="351.3" height="310.86" viewBox="0 0 351.3 310.86"><defs><style>.cls-1{opacity:0.05;}.cls-2,.cls-3,.cls-4,.cls-5,.cls-7,.cls-8{fill:#fff;}.cls-3,.cls-9{opacity:0.1;}.cls-4{opacity:0.15;}.cls-5{opacity:0.4;}.cls-6{fill:#231f20;opacity:0.8;}.cls-7{opacity:0.3;}.cls-8{opacity:0.25;}</style></defs><title>Artboard 1</title><g id="Laag_4" data-name="Laag 4" class="cls-1"><path class="cls-2" d="M104.39,56.54s3.52-11.07,18.1-24S149.76,16,149.76,16l-.27,20.25S126,46,119.25,50.06A75.35,75.35,0,0,1,104.39,56.54Z"/><path class="cls-2" d="M144.13,38s5.18-10.39,21.6-20.93S195.22,5,195.22,5l-3.4,20s-24.72,6-32,8.92A75.09,75.09,0,0,1,144.13,38Z"/><path class="cls-2" d="M187.15,22.08s7.14-9.16,25.32-16.25,31.29-6,31.29-6l-7.29,18.89s-25.4,1-33.14,2.41A75.73,75.73,0,0,1,187.15,22.08Z"/><path class="cls-2" d="M230.11,16.31s10.34-5.29,29.81-4,30.89,7.8,30.89,7.8L276.23,34.11s-23.43-9.85-31.06-11.8A75.48,75.48,0,0,1,230.11,16.31Z"/><path class="cls-2" d="M269.32,29.32s11.44-2,29.69,4.87,27.25,16.5,27.25,16.5L308.2,59.86S288.68,43.56,282,39.47A75.61,75.61,0,0,1,269.32,29.32Z"/><path class="cls-2" d="M301.14,55.67s11.33,2.57,25.47,16,18.7,25.79,18.7,25.79l-20.2,1.43s-11.66-22.59-16.26-29A75.6,75.6,0,0,1,301.14,55.67Z"/><path class="cls-2" d="M318.45,93.59s10.38,5.21,20.89,21.65,12,29.53,12,29.53l-19.95-3.46s-5.9-24.73-8.84-32A75.8,75.8,0,0,1,318.45,93.59Z"/><path class="cls-2" d="M327.84,136.14s9,7.37,15.59,25.73,5.15,31.43,5.15,31.43l-18.7-7.77s-.29-25.42-1.54-33.19A74.91,74.91,0,0,1,327.84,136.14Z"/><path id="_Pad_" data-name="&lt;Pad&gt;" class="cls-2" d="M108.09,73c0-1.8,9-39.24-15.13-42.84S27.08,33.41,9.44,78.05s-6.48,66.24.72,69.12,86,4.32,100.09-3.6c10.48-5.91-1.08-28.44-2.16-47.52A168.61,168.61,0,0,1,108.09,73Z"/><path class="cls-2" d="M307.71,56.81C282.33,17.93,241.83,7.67,200.79,14.69s-98.83,41-98.83,41l.54,81.54a177.66,177.66,0,0,0,22.15-1.62,252.25,252.25,0,0,1,27.48-1.57c-.84-7.27-10.23-10.4-15.74-14-7.24-4.74-11.34-11.29-10.66-18.51,1.73-18.47,25.41-7.39,34-3,8.91,4.59,19.14,9.25,26.56,19,4.64,6.11,5.31,11.91,3.68,17.38,8.22.51,16.76,1.25,25.38,2.28a129.25,129.25,0,0,1,25.1,5.61,98,98,0,0,1-1.76-11.78c-.79-10.07-1.05-34,9.72-39.39,8.44-4.22,17.3.55,23,6.88,7.35,8.19,14.52,16.5,20.28,25.92,4.77,7.81,12.42,19.87,15.48,28.08,1.17,3.14,5.25,10.95,2.21,17.71-3.4,7.57-12,7.66-17,2.1-6.51-7.25-14.4-22-22.42-20.26-.09,1.62-.16,3.24-.22,4.85,13.68,9.18,22.86,20.22,24.44,30.5,3.24,21.06-5.94,59.94-45.9,83.16s-78.3,8.1-90.18-9.72,4.58-31.58,16.2-29.16c16.38,3.42,27.57-6.43,16.74-18.36-10.62-11.7-37.8-12.42-55.62,6.48s-23.22,84.24,53.46,90.72,121.5-58.86,135.54-98.82S333.09,95.69,307.71,56.81Z"/></g><g id="objects"><path class="cls-3" d="M332.72,141.55l18.58,3.22s-1.46-13.09-12-29.53a77.78,77.78,0,0,0-13.69-16.38l19.66-1.39s-4.56-12.35-18.7-25.79a78,78,0,0,0-17-12.53l16.68-8.46s-9-9.61-27.25-16.5a81.35,81.35,0,0,0-17.28-4.55l-.5-.35,9.58-9.23s-11.42-6.55-30.89-7.8a78.36,78.36,0,0,0-21,1.29l-.44-.05L243.76-.14s-13.12-1.12-31.29,6A76.85,76.85,0,0,0,193.6,16.15l-.29.06L195.22,5s-13.08,1.5-29.49,12.05a77.62,77.62,0,0,0-16.17,13.52l.2-14.53s-12.69,3.51-27.27,16.47A78.31,78.31,0,0,0,109,47.78c-1.52-8.43-5.78-16.08-16-17.61-24.12-3.6-65.88,3.24-83.52,47.88s-6.48,66.24.72,69.12,86,4.32,100.09-3.6c2.5-1.41,3.74-3.78,4.17-6.82,3.14-.24,6.66-.59,10.23-1.1a252.25,252.25,0,0,1,27.48-1.57,9.72,9.72,0,0,1-.07,2.73C150.9,144,141.17,158,134.9,160.69c-5.89,2.56-16.08-1.8-20.53,3.67-9.08,11.14,17.58,10.16,22.7,10.4s10.67.56,15.39-1.64c9.28-4.3,17.3-13,24.55-20,5.77-5.55,11-11.63,13-18.17,8.22.51,16.76,1.25,25.38,2.28a129.25,129.25,0,0,1,25.1,5.61h0c2.59,12.64,6.8,25.31,6.69,37.76-6.34-2.68-15.74-7.84-23-4.72-3.25,1.4-5.35,5.27-3.83,8.56,1.81,3.93,7.75,4.53,11.53,5.52,7.86,2.06,16,5.16,24.16,5.83,8.49.7,9.29-2.2,11.18-10.3,2.6-11.14,2.13-22.07,2.78-33.38-.09,1.62-.16,3.24-.22,4.85,13.68,9.18,22.86,20.22,24.44,30.5,3.24,21.06-5.94,59.94-45.9,83.16s-78.3,8.1-90.18-9.72,4.58-31.58,16.2-29.16c16.38,3.42,27.57-6.43,16.74-18.36-10.62-11.7-37.8-12.42-55.62,6.48s-23.22,84.24,53.46,90.72,121.5-58.86,135.54-98.82a130.39,130.39,0,0,0,5.88-26.08l18.25,7.59s1.46-13.08-5.15-31.43A75.89,75.89,0,0,0,332.72,141.55ZM139.68,122c5.33,2.93,11.77,6.11,12.45,12.07C151.45,128.12,145,124.94,139.68,122Zm-2.29-1.31.13.08Zm1.12.65.24.14Zm47.8-3.74c.31.41.59.81.86,1.2C186.9,118.42,186.62,118,186.31,117.61Zm1.13,1.62c.17.26.34.51.49.77C187.78,119.74,187.61,119.49,187.44,119.23Zm.78,1.28.38.67Zm.65,1.22c.1.2.2.41.29.62C189.07,122.14,189,121.93,188.87,121.73Zm.54,1.2c.08.19.16.38.23.57C189.57,123.31,189.49,123.12,189.41,122.93Zm.45,1.18c.06.17.11.35.17.52C190,124.46,189.92,124.28,189.86,124.11Zm.35,1.17.12.46Zm.27,1.16.06.37Zm.18,1.15a1.23,1.23,0,0,1,0,.2A1.23,1.23,0,0,0,190.66,127.59Zm49.19,12,.06.38Zm-1.14-8.5q.12,1.5.3,3Q238.83,132.6,238.71,131.1Zm.55,4.84c.06.37.1.75.16,1.12C239.36,136.69,239.32,136.31,239.26,135.94Z"/><path id="_Pad_2" data-name="&lt;Pad&gt;" class="cls-4" d="M107.55,73.21c0-1.8,9-39.24-15.12-42.84S26.55,33.61,8.91,78.25s-6.48,66.24.72,69.12,86,4.32,100.08-3.6c10.49-5.91-1.08-28.44-2.16-47.52A170.76,170.76,0,0,1,107.55,73.21Z"/><path class="cls-4" d="M332.72,141.75,351.3,145s-1.46-13.08-12-29.52a77.78,77.78,0,0,0-13.69-16.38l19.66-1.4s-4.56-12.35-18.7-25.79a77.86,77.86,0,0,0-17-12.52l16.68-8.46s-9-9.61-27.25-16.51a80.55,80.55,0,0,0-18-4.65l9.84-9.48s-11.42-6.55-30.89-7.79a77.34,77.34,0,0,0-21.48,1.4L243.76.06S230.64-1,212.47,6A77,77,0,0,0,193.28,16.6l1.94-11.4s-13.08,1.51-29.49,12.05a77.93,77.93,0,0,0-16.17,13.52l.2-14.53s-12.69,3.51-27.27,16.47A78.9,78.9,0,0,0,109,48a47.17,47.17,0,0,1,.69,6.88,66.23,66.23,0,0,0,9.56-4.6c5.2-3.12,20.35-9.61,27-12.42a73.06,73.06,0,0,0,13.54-3.75c7.29-3,32-8.92,32-8.92l.47-2.8a67.58,67.58,0,0,0,11-1c6.74-1.27,26.86-2.15,31.95-2.36a65.81,65.81,0,0,0,9.89,3.5C251.06,24,266.36,30.23,273,33A67.3,67.3,0,0,0,282,39.67c4.88,3,16.52,12.39,22.52,17.32a25.89,25.89,0,0,0-3.34-1.12,75.86,75.86,0,0,0,7.71,14.26c4,5.62,13.55,23.77,15.78,28.05a35.22,35.22,0,0,0-6.18-4.38,75.78,75.78,0,0,0,4.06,15.68c2.42,6,6.85,23.86,8.34,30a28.18,28.18,0,0,0-3-3.09,74.82,74.82,0,0,0,.5,16.19c1.25,7.77,1.54,33.19,1.54,33.19l18.7,7.78s1.46-13.09-5.15-31.44A76,76,0,0,0,332.72,141.75Z"/><circle class="cls-5" cx="56.96" cy="82.93" r="31.68"/><circle class="cls-6" cx="45.64" cy="68.73" r="3.96"/><path class="cls-7" d="M.16,125.05H113.52q-.27-1.41-.6-2.88H0C.05,123.17.1,124.12.16,125.05Z"/><path class="cls-2" d="M238.5,13.71l-.06.16.47-.1Z"/><path class="cls-8" d="M159.75,98.59c-8.61-4.42-32.29-15.5-34,3-.68,7.22,3.42,13.77,10.66,18.51,6.16,4,17.17,7.47,15.67,16.74C150.9,144,141.17,158,134.9,160.69c-5.89,2.56-16.08-1.8-20.53,3.67-9.08,11.14,17.58,10.16,22.7,10.4s10.67.56,15.39-1.64c9.28-4.3,17.3-13,24.55-20,10.58-10.19,19.49-22.13,9.3-35.55C178.89,107.84,168.66,103.18,159.75,98.59Z"/><path class="cls-8" d="M307.17,152.59c-3.06-8.21-10.71-20.27-15.48-28.08-5.76-9.42-12.93-17.73-20.28-25.92-5.68-6.33-14.54-11.1-23-6.88-10.77,5.38-10.51,29.32-9.72,39.39,1.3,16.5,8.6,33.21,8.45,49.53-6.34-2.68-15.74-7.84-23-4.72-3.25,1.4-5.35,5.27-3.83,8.56,1.81,3.93,7.75,4.53,11.53,5.52,7.86,2.06,16,5.16,24.16,5.83,8.49.7,9.29-2.2,11.18-10.3,2.6-11.14,2.13-22.07,2.78-33.38,8-1.71,15.91,13,22.42,20.26,5,5.56,13.57,5.47,17-2.1C312.42,163.54,308.34,155.73,307.17,152.59Z"/><g class="cls-9"><path class="cls-2" d="M329.88,185.73s-.12-10.53-.54-20.11c-3.11,5.52-5.87,11.26-9.46,16.52a127.12,127.12,0,0,1-19,22q-3.69,3.41-7.61,6.54a87.13,87.13,0,0,1-16.73,35.91,96.07,96.07,0,0,0,15-7.85,149.26,149.26,0,0,0,25.84-19.6c2.51-2.4,4.91-4.92,7.21-7.51a132,132,0,0,0,5.73-25.66Z"/><path class="cls-2" d="M266,271.24a72.58,72.58,0,0,1-12.85-3.41c-1.58,1-3.19,2.05-4.88,3a91.6,91.6,0,0,1-15.72,7.27c3.18,1.52,6.42,2.82,9.42,4a104.27,104.27,0,0,0,25.52,6.89,143,143,0,0,0,20.24-17.67A67.77,67.77,0,0,1,266,271.24Z"/><path class="cls-2" d="M185.32,279.53a59.15,59.15,0,0,1-19-9.76c-.23,1.25-.42,2.44-.58,3.54a73.46,73.46,0,0,0,3,34,111,111,0,0,0,20.19,3.49l.52,0a69,69,0,0,1-4-15.22A59.93,59.93,0,0,1,185.32,279.53Z"/><path class="cls-2" d="M153.83,238.35a111.7,111.7,0,0,0-24,7.46c-1.8.8-3.59,1.69-5.36,2.65A57.67,57.67,0,0,0,126.7,270a59.85,59.85,0,0,1,16-9.45,84.14,84.14,0,0,1,13-3.86c-3.4-7.94-1.26-14.78,3.07-19.28C157.07,237.7,155.42,238,153.83,238.35Z"/><path class="cls-2" d="M199.59,79.88c-3-17.6-8.47-36.44-18.19-52.1-5.86,1.51-13,3.41-17.82,5,2,4.05,3.85,8.17,5.44,12.38,4.34,11.51,6.91,23.78,8.88,35.89a197.84,197.84,0,0,1,2.48,30.22,44.64,44.64,0,0,1,5.93,6.36c4.7,6.19,5.33,12,3.62,17.58,3.82.24,7.71.52,11.64.87q.63-5.88.92-11.79A208.92,208.92,0,0,0,199.59,79.88Z"/><path class="cls-2" d="M126.19,107.22a232.58,232.58,0,0,1,2,28.22c4.89-.48,12.19-.91,21.14-1.1q-.07-3.09-.23-6.17c-3.44-3.43-8.94-5.66-12.67-8.1C131.09,116.61,127.49,112.17,126.19,107.22Z"/><path class="cls-2" d="M125.66,103.17c0-.53,0-1.06.07-1.61,1-11.14,10.07-11.53,19-9.11-.55-2.89-1.13-5.77-1.78-8.63-2.82-12.52-6.38-26.63-12.38-39.12-4.65,2.1-9,4.17-11.27,5.56-1.64,1-3.36,1.87-5,2.65,3.54,9.77,5.88,20,8,30.2C123.53,89.68,124.71,96.4,125.66,103.17Z"/><path class="cls-2" d="M272.82,152.19c-.72,1.87-1.44,3.73-2.18,5.59,7.76,5.33,14,11.26,18.14,17.28q1-2.34,1.92-4.69C285.33,163.72,279.16,153.65,272.82,152.19Z"/><path class="cls-2" d="M308.85,70.13a75.86,75.86,0,0,1-7.71-14.26A25.89,25.89,0,0,1,304.48,57c-2.91-2.39-7.15-5.84-11.3-9.09A293.38,293.38,0,0,1,290,81.36c-1.61,10.93-3.23,21.88-5.54,32.68a118.7,118.7,0,0,1,7.24,10.47c2.72,4.46,6.39,10.31,9.6,16,.7-2.35,1.38-4.7,2-7.06a314.55,314.55,0,0,0,8.85-48.42c.29-2.84.55-5.66.75-8.47C311.33,73.9,309.9,71.59,308.85,70.13Z"/><path class="cls-2" d="M233.39,82.2c-.25,15.75-2,31.39-4.21,47-.49,3.47-1,6.94-1.51,10.41a131.83,131.83,0,0,1,12.85,3.53,96,96,0,0,1-1.81-12c-.79-10.07-1.05-34,9.72-39.39a14.82,14.82,0,0,1,8-1.54q.06-3,.05-6.07c-.06-20.84-2.73-41.8-9.82-61.18-.52-.15-1-.3-1.45-.41a65.81,65.81,0,0,1-9.89-3.5c-1.81.07-5.53.23-9.87.46A219.16,219.16,0,0,1,233.39,82.2Z"/></g></g></svg>