<svg id="Laag_1" data-name="Laag 1" xmlns="http://www.w3.org/2000/svg" viewBox="0 0 280.72 180.84"><defs><style>.cls-1{fill:#fff;}</style></defs><title>scroll_d</title><path class="cls-1" d="M240.59,0h-.08a39.87,39.87,0,0,0-28.35,11.8l-71.8,72.05-71.8-72A40.13,40.13,0,1,0,11.71,68.46L111.93,169a40.15,40.15,0,0,0,56.86,0L269,68.46A40.14,40.14,0,0,0,240.59,0Zm14,54.06L154.34,154.64a19.75,19.75,0,0,1-28,0L26.16,54.06a19.73,19.73,0,0,1,28-27.86l79,79.3a10.2,10.2,0,0,0,14.45,0l79-79.3a19.61,19.61,0,0,1,13.94-5.8h0a19.74,19.74,0,0,1,14,33.66Z"/><path class="cls-1" d="M171,103.33a10.16,10.16,0,0,0-7.21,3l-7.14,7.14A10.2,10.2,0,1,0,171,127.88l7.14-7.14A10.2,10.2,0,0,0,171,103.33Z"/><path class="cls-1" d="M243.37,30.91a10.17,10.17,0,0,0-7.21,3l-50,50A10.2,10.2,0,1,0,200.61,98.3l50-50a10.2,10.2,0,0,0-7.21-17.41Z"/></svg>